<?xml version="1.0" encoding="UTF-8" standalone="no"?>
<svg
   xmlns:dc="http://purl.org/dc/elements/1.1/"
   xmlns:cc="http://creativecommons.org/ns#"
   xmlns:rdf="http://www.w3.org/1999/02/22-rdf-syntax-ns#"
   xmlns:svg="http://www.w3.org/2000/svg"
   xmlns="http://www.w3.org/2000/svg"
   xmlns:sodipodi="http://sodipodi.sourceforge.net/DTD/sodipodi-0.dtd"
   xmlns:inkscape="http://www.inkscape.org/namespaces/inkscape"
   id="Componente_4_2"
   data-name="Componente 4 – 2"
   width="285.175"
   height="285.175"
   viewBox="0 0 285.175 285.175"
   version="1.1"
   sodipodi:docname="polifonia-icon-bells.svg"
   inkscape:version="1.0.1 (3bc2e813f5, 2020-09-07)">
  <metadata
     id="metadata35">
    <rdf:RDF>
      <cc:Work
         rdf:about="">
        <dc:format>image/svg+xml</dc:format>
        <dc:type
           rdf:resource="http://purl.org/dc/dcmitype/StillImage" />
        <dc:title></dc:title>
      </cc:Work>
    </rdf:RDF>
  </metadata>
  <sodipodi:namedview
     pagecolor="#ffffff"
     bordercolor="#666666"
     borderopacity="1"
     objecttolerance="10"
     gridtolerance="10"
     guidetolerance="10"
     inkscape:pageopacity="0"
     inkscape:pageshadow="2"
     inkscape:window-width="876"
     inkscape:window-height="480"
     id="namedview33"
     showgrid="false"
     inkscape:zoom="3.0156922"
     inkscape:cx="142.58749"
     inkscape:cy="142.58749"
     inkscape:window-x="0"
     inkscape:window-y="30"
     inkscape:window-maximized="0"
     inkscape:current-layer="Componente_4_2" />
  <defs
     id="defs15">
    <linearGradient
       id="linear-gradient"
       x1="0.146"
       y1="0.146"
       x2="0.854"
       y2="0.854"
       gradientUnits="objectBoundingBox">
      <stop
         offset="0"
         stop-color="blue"
         id="stop2" />
      <stop
         offset="0.192"
         stop-color="#2100e5"
         id="stop4" />
      <stop
         offset="0.398"
         stop-color="#3e00cf"
         id="stop6" />
      <stop
         offset="0.603"
         stop-color="#5300c0"
         id="stop8" />
      <stop
         offset="0.805"
         stop-color="#5f00b7"
         id="stop10" />
      <stop
         offset="1"
         stop-color="#6400b4"
         id="stop12" />
    </linearGradient>
  </defs>
  <g
     id="Raggruppa_1952"
     data-name="Raggruppa 1952">
    <rect
       id="Rettangolo_413"
       data-name="Rettangolo 413"
       width="285.175"
       height="285.175"
       rx="100"
       transform="translate(0 0)"
       fill="url(#linear-gradient)" />
    <g
       id="Raggruppa_1951"
       data-name="Raggruppa 1951"
       transform="translate(81.878 69.741)">
      <g
         id="Raggruppa_1945"
         data-name="Raggruppa 1945">
        <path
           id="Tracciato_1734"
           data-name="Tracciato 1734"
           d="M5701.363,4082.478a17.786,17.786,0,0,1-12.155-4.953h0a16.872,16.872,0,0,1-4.954-12.156h-40.07a3.4,3.4,0,0,1-3.451-3.45,4.374,4.374,0,0,1,.3-1.351c1.951-6.753,4.652-9.754,7.2-12.907,4.352-5.251,8.705-10.355,9-41.871a53.193,53.193,0,0,1,12.906-35.267,44.4,44.4,0,0,1,21.462-13.657c0-.45-.153-.9-.153-1.351a9.522,9.522,0,0,1,3-7.053,10.121,10.121,0,0,1,7.053-3"
           transform="translate(-5640.733 -3945.46)"
           fill="none"
           stroke="#fff"
           stroke-linecap="round"
           stroke-linejoin="round"
           stroke-width="1.5"
           fill-rule="evenodd" />
      </g>
      <g
         id="Raggruppa_1946"
         data-name="Raggruppa 1946"
         transform="translate(14.125 20.172)">
        <path
           id="Tracciato_1735"
           data-name="Tracciato 1735"
           d="M5697.14,3959.588a30.619,30.619,0,0,0-7.134.881,34.512,34.512,0,0,0-16.6,10.637,43.061,43.061,0,0,0-10.4,28.639v.1c-.146,15.179-1.2,25.766-3.333,33.319a36.267,36.267,0,0,1-7.909,14.763l-.025.031c-.166.2-.331.408-.5.61-.214.261-.419.513-.618.76h39.4v10a6.925,6.925,0,0,0,1.938,5,7.73,7.73,0,0,0,5.168,2.109"
           transform="translate(-5650.626 -3959.588)"
           fill="none"
           stroke="#fff"
           stroke-linecap="round"
           stroke-linejoin="round"
           stroke-width="1.5" />
      </g>
      <g
         id="Raggruppa_1947"
         data-name="Raggruppa 1947"
         transform="translate(31.705 30.174)">
        <path
           id="Tracciato_1736"
           data-name="Tracciato 1736"
           d="M5691.873,3966.593a21,21,0,0,0-4.551.542l.049-.014-.029.009-.021.005-.007,0a24.558,24.558,0,0,0-11.678,7.592,33.088,33.088,0,0,0-7.891,22.019v.192c-.154,16.088-1.332,27.509-3.709,35.938-.343,1.218-.711,2.366-1.1,3.45h29.075"
           transform="translate(-5662.938 -3966.593)"
           fill="none"
           stroke="#fff"
           stroke-linecap="round"
           stroke-linejoin="round"
           stroke-width="1.5" />
      </g>
      <g
         id="Raggruppa_1948"
         data-name="Raggruppa 1948"
         transform="translate(60.63)">
        <path
           id="Tracciato_1737"
           data-name="Tracciato 1737"
           d="M5683.206,3945.46a10.125,10.125,0,0,1,7.054,3,9.522,9.522,0,0,1,3,7.053c0,.45-.149.9-.149,1.351a44.4,44.4,0,0,1,21.459,13.657,53.187,53.187,0,0,1,12.9,35.267c.3,31.516,4.655,36.619,9.007,41.871,2.551,3.152,5.251,6.153,7.2,12.907a4.39,4.39,0,0,1,.3,1.351,3.4,3.4,0,0,1-3.451,3.45h-40.069a16.872,16.872,0,0,1-4.954,12.156h0a18.182,18.182,0,0,1-12.315,4.953"
           transform="translate(-5683.197 -3945.46)"
           fill="none"
           stroke="#fff"
           stroke-linecap="round"
           stroke-linejoin="round"
           stroke-width="1.5"
           fill-rule="evenodd" />
      </g>
      <g
         id="Raggruppa_1949"
         data-name="Raggruppa 1949"
         transform="translate(60.63 20.172)">
        <path
           id="Tracciato_1738"
           data-name="Tracciato 1738"
           d="M5683.2,4066.432a8.127,8.127,0,0,0,5.327-2.109,6.927,6.927,0,0,0,1.94-5v-10h39.4c-.2-.247-.4-.5-.618-.76l-.5-.61-.026-.031a36.262,36.262,0,0,1-7.909-14.763c-2.129-7.553-3.189-18.14-3.333-33.319v-.1a43.061,43.061,0,0,0-10.4-28.639,34.511,34.511,0,0,0-16.6-10.637,32.633,32.633,0,0,0-7.275-.881"
           transform="translate(-5683.197 -3959.588)"
           fill="none"
           stroke="#fff"
           stroke-linecap="round"
           stroke-linejoin="round"
           stroke-width="1.5" />
      </g>
      <g
         id="Raggruppa_1950"
         data-name="Raggruppa 1950"
         transform="translate(60.639 30.174)">
        <path
           id="Tracciato_1739"
           data-name="Tracciato 1739"
           d="M5683.2,4036.327h29.077q-.577-1.625-1.1-3.45c-2.377-8.429-3.555-19.85-3.709-35.938v-.192a33.1,33.1,0,0,0-7.891-22.019,24.564,24.564,0,0,0-11.678-7.592l-.005,0-.024-.005-.029-.009.05.014a22.989,22.989,0,0,0-4.693-.542"
           transform="translate(-5683.203 -3966.593)"
           fill="none"
           stroke="#fff"
           stroke-linecap="round"
           stroke-linejoin="round"
           stroke-width="1.5" />
      </g>
    </g>
  </g>
</svg>
